<svg width="17" height="17" viewBox="0 0 17 17" fill="none" xmlns="http://www.w3.org/2000/svg">
    <path
        d="M5.05 17H1.8C1.3 17 0.875 16.825 0.525 16.475C0.175 16.125 0 15.7 0 15.2V8.5C0 7.31667 0.225 6.21267 0.675 5.188C1.125 4.16267 1.73333 3.26667 2.5 2.5C3.26667 1.73333 4.16267 1.125 5.188 0.675C6.21267 0.225 7.31667 0 8.5 0C9.68333 0 10.7873 0.225 11.812 0.675C12.8373 1.125 13.7333 1.73333 14.5 2.5C15.2667 3.26667 15.875 4.16267 16.325 5.188C16.775 6.21267 17 7.31667 17 8.5V15.2C17 15.7 16.825 16.125 16.475 16.475C16.125 16.825 15.7 17 15.2 17H11.95V9.925H15.5V8.5C15.5 6.55 14.8207 4.89567 13.462 3.537C12.104 2.179 10.45 1.5 8.5 1.5C6.55 1.5 4.896 2.179 3.538 3.537C2.17933 4.89567 1.5 6.55 1.5 8.5V9.925H5.05V17ZM3.55 11.425H1.5V15.2C1.5 15.2667 1.53333 15.3333 1.6 15.4C1.66667 15.4667 1.73333 15.5 1.8 15.5H3.55V11.425ZM13.45 11.425V15.5H15.2C15.2667 15.5 15.3333 15.4667 15.4 15.4C15.4667 15.3333 15.5 15.2667 15.5 15.2V11.425H13.45ZM13.45 11.425H15.5C15.5 11.425 15.4667 11.425 15.4 11.425C15.3333 11.425 15.2667 11.425 15.2 11.425H13.45ZM3.55 11.425H1.8C1.73333 11.425 1.66667 11.425 1.6 11.425C1.53333 11.425 1.5 11.425 1.5 11.425H3.55Z"
        fill="white" />
</svg>