<svg width="19" height="18" viewBox="0 0 19 18" fill="none" xmlns="http://www.w3.org/2000/svg">
    <path
        d="M9.5 17.175L8.375 16.175C5.84167 13.8917 3.81233 11.9083 2.287 10.225C0.762334 8.54167 0 6.8 0 5C0 3.58333 0.479333 2.39567 1.438 1.437C2.396 0.479 3.58333 0 5 0C5.8 0 6.596 0.187333 7.388 0.562C8.17933 0.937333 8.88333 1.54167 9.5 2.375C10.1167 1.54167 10.821 0.937333 11.613 0.562C12.4043 0.187333 13.2 0 14 0C15.4167 0 16.604 0.479 17.562 1.437C18.5207 2.39567 19 3.58333 19 5C19 6.8 18.2373 8.54167 16.712 10.225C15.1873 11.9083 13.1583 13.8917 10.625 16.175L9.5 17.175ZM9.5 15.15C11.8833 12.9833 13.8127 11.1167 15.288 9.55C16.7627 7.98333 17.5 6.46667 17.5 5C17.5 4 17.1667 3.16667 16.5 2.5C15.8333 1.83333 15 1.5 14 1.5C13.2167 1.5 12.4917 1.71667 11.825 2.15C11.1583 2.58333 10.625 3.21667 10.225 4.05H8.775C8.375 3.21667 7.84167 2.58333 7.175 2.15C6.50833 1.71667 5.78333 1.5 5 1.5C4 1.5 3.16667 1.83333 2.5 2.5C1.83333 3.16667 1.5 4 1.5 5C1.5 6.46667 2.23767 7.98333 3.713 9.55C5.18767 11.1167 7.11667 12.9833 9.5 15.15Z"
        fill="white" />
</svg>