<?xml version="1.0" encoding="UTF-8"?>
<svg version="1.1" xmlns="http://www.w3.org/2000/svg" width="512" height="512">
<path d="M0 0 C20.92966064 18.19575589 32.81416504 42.5744628 35.52734375 70.1484375 C36.045856 79.38240204 35.92673397 88.63809106 35.890625 97.8828125 C35.89010504 100.5364033 35.8905764 103.18997817 35.89213562 105.84356689 C35.89301171 111.373791 35.88207928 116.90389092 35.86352539 122.43408203 C35.84232628 128.78829443 35.83886101 135.1423259 35.84508735 141.49656653 C35.85081897 147.66674371 35.84509363 153.8368585 35.8339138 160.00702667 C35.83009082 162.60791014 35.82890141 165.20879897 35.83049965 167.80968475 C35.8331783 193.86301994 35.8331783 193.86301994 33.52734375 205.1484375 C33.37312454 205.91465927 33.21890533 206.68088104 33.06001282 207.47032166 C27.69117225 231.40542244 13.60241113 248.4017368 -3.47265625 265.1484375 C2.79734375 271.4184375 9.06734375 277.6884375 15.52734375 284.1484375 C31.79183216 277.64264214 42.81758484 256.97862297 50.52734375 242.1484375 C51.00945312 241.23835938 51.4915625 240.32828125 51.98828125 239.390625 C60.70789247 221.67370794 63.30970717 202.63062281 64.52734375 183.1484375 C82.01734375 183.1484375 99.50734375 183.1484375 117.52734375 183.1484375 C114.87591181 238.82850833 95.49451367 283.45681555 55.52734375 322.1484375 C57.03068703 325.66412695 59.05741639 327.92545507 61.75405884 330.61566162 C62.64029434 331.50464645 63.52652985 332.39363129 64.43962097 333.30955505 C65.42401038 334.28686676 66.4084954 335.26408217 67.39306641 336.24121094 C68.42826062 337.27584089 69.4630144 338.31091167 70.49736023 339.34638977 C73.30467487 342.15427832 76.11811403 344.95595693 78.93268633 347.75656796 C81.87376694 350.68514761 84.80918625 353.61939052 87.74520874 356.55303955 C93.30499186 362.10660604 98.86985365 367.65505452 104.43655431 373.20168614 C110.77415867 379.51693721 117.10608618 385.83786701 123.43754125 392.15928221 C136.4611651 405.16199992 149.49190736 418.15756262 162.52734375 431.1484375 C161.58860105 432.25364324 160.64840269 433.35761267 159.70761108 434.46107483 C159.18419821 435.07598313 158.66078533 435.69089144 158.12151146 436.32443333 C155.75879627 439.02778903 153.24241437 441.55767576 150.69140625 444.08203125 C149.90508316 444.86623192 149.90508316 444.86623192 149.10287476 445.66627502 C147.45506505 447.30856095 145.80378474 448.947304 144.15234375 450.5859375 C143.0232042 451.71005217 141.89429597 452.83439924 140.765625 453.95898438 C138.02219187 456.69148985 135.2756439 459.42082759 132.52734375 462.1484375 C126.29736659 457.01223763 120.65639468 451.37234857 114.98974609 445.62915039 C113.94292037 444.57220359 112.89581899 443.51552974 111.84846497 442.45910645 C109.60580025 440.19643974 107.36449938 437.9324338 105.12409592 435.66752815 C101.5817912 432.08767027 98.03285428 428.51443776 94.48233032 424.94273376 C93.88186083 424.33862689 93.28139134 423.73452001 92.66272581 423.11210686 C91.43573692 421.87771368 90.20873208 420.64333634 88.98171163 419.40897453 C80.72384692 411.10119173 72.47042135 402.78912497 64.23535156 394.45874023 C58.66792311 388.82697328 53.09000496 383.20583611 47.49962008 377.5968532 C44.54432342 374.63086594 41.59477131 371.65962115 38.65800095 368.67527962 C35.90134737 365.87412547 33.13115327 363.08713089 30.34978294 360.31052399 C29.33066799 359.28815388 28.3167187 358.26060517 27.30833244 357.2276516 C25.93400548 355.82136029 24.53932915 354.43504095 23.14364624 353.04994202 C22.36829214 352.26775834 21.59293804 351.48557467 20.79408836 350.67968845 C18.61347511 348.86384427 18.61347511 348.86384427 15.86821938 349.35755062 C13.67054685 350.10005498 11.53319 350.8683556 9.40234375 351.78515625 C8.23421143 352.27604736 8.23421143 352.27604736 7.04248047 352.77685547 C6.21248535 353.12635254 5.38249023 353.47584961 4.52734375 353.8359375 C-2.74412409 356.82183196 -10.03359553 359.38206064 -17.59765625 361.5234375 C-18.43683594 361.76151123 -19.27601563 361.99958496 -20.140625 362.24487305 C-34.35280918 366.1484375 -34.35280918 366.1484375 -41.47265625 366.1484375 C-41.47265625 389.2484375 -41.47265625 412.3484375 -41.47265625 436.1484375 C-23.98265625 436.1484375 -6.49265625 436.1484375 11.52734375 436.1484375 C11.52734375 453.3084375 11.52734375 470.4684375 11.52734375 488.1484375 C-40.61265625 488.1484375 -92.75265625 488.1484375 -146.47265625 488.1484375 C-146.47265625 471.3184375 -146.47265625 454.4884375 -146.47265625 437.1484375 C-128.98265625 437.1484375 -111.49265625 437.1484375 -93.47265625 437.1484375 C-93.47265625 413.7184375 -93.47265625 390.2884375 -93.47265625 366.1484375 C-96.77265625 365.8184375 -100.07265625 365.4884375 -103.47265625 365.1484375 C-150.55580896 356.8412975 -192.49385813 327.55980665 -219.7734375 288.88671875 C-234.5629385 266.6893327 -244.1164113 243.20916632 -249.47265625 217.1484375 C-249.70855469 216.00117188 -249.94445312 214.85390625 -250.1875 213.671875 C-251.98726906 203.50383668 -251.97588054 193.58072741 -252.47265625 183.1484375 C-234.98265625 183.1484375 -217.49265625 183.1484375 -199.47265625 183.1484375 C-198.48265625 194.0384375 -198.48265625 194.0384375 -197.47265625 205.1484375 C-190.29419361 241.55349801 -171.27492426 272.3880016 -140.48486328 293.51220703 C-111.06307374 312.962206 -75.12786193 319.51328665 -40.67822266 312.63232422 C-35.19044495 311.42834199 -29.82036819 309.86703334 -24.47265625 308.1484375 C-24.47265625 303.75719788 -29.97761333 299.97356545 -32.89550781 296.97045898 C-33.85775422 295.97019511 -34.80823407 294.95846704 -35.74609375 293.93530273 C-40.9678959 287.87334738 -40.9678959 287.87334738 -47.99072266 284.71923828 C-50.55699567 285.00097098 -52.96111164 285.55685158 -55.47265625 286.1484375 C-57.35830532 286.26477617 -59.24759989 286.3306574 -61.13671875 286.3515625 C-62.10544922 286.36429199 -63.07417969 286.37702148 -64.07226562 286.39013672 C-94.57724702 286.47383341 -119.55489851 276.83686766 -141.53515625 255.4609375 C-153.19921274 243.75054358 -161.50769831 229.44637736 -166.28515625 213.6484375 C-166.48012695 213.00938477 -166.67509766 212.37033203 -166.87597656 211.71191406 C-169.44539615 202.57166838 -170.86875007 193.33100953 -169.91429138 183.86010742 C-168.76855307 170.54556673 -169.26457917 160.1732175 -177.99300414 149.57191372 C-183.91723148 142.79388924 -190.45134763 136.60707096 -197.01711583 130.46076584 C-200.60208257 127.07213354 -204.09711306 123.59296206 -207.6033783 120.12329102 C-214.2293469 113.59295666 -220.93007995 107.14555455 -227.66288227 100.72562122 C-235.33513518 93.40218485 -242.91754224 85.98847221 -250.4944402 78.56662178 C-266.05729608 63.32615119 -281.72719622 48.20003255 -297.47265625 33.1484375 C-296.53391355 32.04323176 -295.59371519 30.93926233 -294.65292358 29.83580017 C-294.12951071 29.22089187 -293.60609783 28.60598356 -293.06682396 27.97244167 C-290.70410877 25.26908597 -288.18772687 22.73919924 -285.63671875 20.21484375 C-285.11250336 19.6920433 -284.58828796 19.16924286 -284.04818726 18.63059998 C-282.40037755 16.98831405 -280.74909724 15.349571 -279.09765625 13.7109375 C-277.9685167 12.58682283 -276.83960847 11.46247576 -275.7109375 10.33789062 C-272.96750437 7.60538515 -270.2209564 4.87604741 -267.47265625 2.1484375 C-261.85289381 6.82592851 -256.66494289 11.81965235 -251.50805664 16.99951172 C-250.63896667 17.86845566 -249.76987671 18.7373996 -248.87445068 19.63267517 C-246.5115528 21.99614694 -244.15088364 24.36180278 -241.79120946 26.72849035 C-239.31731944 29.20866676 -236.84056343 31.68597788 -234.36412048 34.16360474 C-229.68389216 38.84693088 -225.00621699 43.53279839 -220.32947201 48.2196027 C-215.00129189 53.55899228 -209.67024388 58.89551455 -204.33896267 64.23180747 C-193.38035116 75.20084825 -182.42531549 86.17345313 -171.47265625 97.1484375 C-171.4489093 96.34900223 -171.42516235 95.54956696 -171.4006958 94.72590637 C-171.28900748 91.06059059 -171.16994857 87.39554869 -171.05078125 83.73046875 C-171.01355957 82.47302856 -170.97633789 81.21558838 -170.93798828 79.92004395 C-169.95947064 50.55012462 -160.07136553 23.2749258 -138.39453125 2.78515625 C-98.41644106 -31.26122544 -40.91156226 -34.21863018 0 0 Z " fill="#FF4B4B" transform="translate(323.47265625,23.8515625)"/>
</svg>
