<svg width="19" height="20" viewBox="0 0 19 20" fill="none" xmlns="http://www.w3.org/2000/svg">
    <path
        d="M2.225 16.325V14.825H4.225V7.575C4.225 7.325 4.24167 7.09167 4.275 6.875C4.30833 6.65833 4.35 6.44167 4.4 6.225L0 1.825L1.075 0.775L18.9 18.6L17.85 19.675L14.475 16.325H2.225ZM15.725 12.6L14.225 11.1V7.575C14.225 6.39167 13.8083 5.38733 12.975 4.562C12.1417 3.73733 11.1417 3.325 9.975 3.325C9.50833 3.325 9.046 3.404 8.588 3.562C8.12933 3.72067 7.725 3.95 7.375 4.25L6.3 3.175C6.65 2.875 7.03333 2.62067 7.45 2.412C7.86667 2.204 8.29167 2.05 8.725 1.95V1.25C8.725 0.9 8.846 0.604 9.088 0.362C9.32933 0.120667 9.625 0 9.975 0C10.325 0 10.6207 0.120667 10.862 0.362C11.104 0.604 11.225 0.9 11.225 1.25V1.95C12.475 2.23333 13.5377 2.88767 14.413 3.913C15.2877 4.93767 15.725 6.15833 15.725 7.575V12.6ZM9.975 19.25C9.475 19.25 9.05 19.075 8.7 18.725C8.35 18.375 8.175 17.95 8.175 17.45H11.775C11.775 17.95 11.6 18.375 11.25 18.725C10.9 19.075 10.475 19.25 9.975 19.25ZM5.725 14.825H12.95L5.775 7.625C5.75833 7.69167 5.746 7.76233 5.738 7.837C5.72933 7.91233 5.725 7.98333 5.725 8.05V14.825Z"
        fill="white" />
</svg>