<svg width="189" height="35" viewBox="0 0 189 35" fill="none" xmlns="http://www.w3.org/2000/svg">
<path fill-rule="evenodd" clip-rule="evenodd" d="M0 32.626V34.751H2.125H31.875H34V32.626V2.87598V0.750977C32.6394 0.750977 31.3345 1.29148 30.3724 2.25358L17 15.626L3.6276 2.25358C2.6655 1.29148 1.36061 0.750977 0 0.750977V2.87598V32.626ZM17 19.876L29.0417 31.9176H4.95833L17 19.876ZM14.875 17.751L2.83333 5.70931V29.7926L14.875 17.751ZM19.125 17.751L31.1667 5.70931V29.7926L19.125 17.751Z" fill="#3AEE94"/>
<path d="M61.8865 12.7494H67.4572V28.5781H61.8865V25.6973C61.3467 26.7736 60.6017 27.6073 59.6517 28.1982C58.7016 28.7892 57.5357 29.0846 56.1538 29.0846C54.0809 29.0846 52.5371 28.5042 51.5222 27.3435C50.5074 26.1616 50 24.5049 50 22.3733V12.7494H55.5708V21.4236C55.5708 23.5974 56.5208 24.6843 58.4209 24.6843C59.5221 24.6843 60.375 24.3149 60.9796 23.5763C61.5842 22.8165 61.8865 21.6874 61.8865 20.1889V12.7494Z" fill="white"/>
<path d="M75.7937 28.5781H69.6723L75.5669 20.9487L69.5104 12.7494H76.0204L79.0001 17.2764L81.8179 12.7494H87.7449L82.0122 20.6321L88.0688 28.5781H81.5588L78.6438 24.1777L75.7937 28.5781Z" fill="white"/>
<path d="M93.7792 23.4813C93.844 24.1566 94.1571 24.7159 94.7185 25.1591C95.3015 25.6023 96.0896 25.8239 97.0828 25.8239C98.767 25.8239 99.6091 25.328 99.6091 24.336C99.6091 23.8717 99.458 23.5024 99.1557 23.228C98.875 22.9537 98.3028 22.7637 97.4391 22.6582L94.006 22.2783C92.4297 22.1095 91.2314 21.6241 90.4109 20.8221C89.5904 19.999 89.1801 18.9015 89.1801 17.5297C89.1801 15.7358 89.8711 14.4062 91.253 13.5409C92.6565 12.6756 94.5134 12.2429 96.8237 12.2429C99.1773 12.2429 101.045 12.665 102.427 13.5092C103.809 14.3534 104.575 15.6619 104.726 17.4347H99.6739C99.5012 16.1262 98.5619 15.472 96.8561 15.472C95.9709 15.472 95.3123 15.6197 94.8804 15.9152C94.4702 16.1895 94.2651 16.5589 94.2651 17.0232C94.2651 17.8463 94.902 18.3211 96.176 18.4478L99.512 18.7643C101.412 18.9543 102.783 19.4502 103.625 20.2522C104.489 21.0331 104.921 22.1833 104.921 23.7029C104.921 25.3491 104.305 26.6576 103.075 27.6284C101.844 28.5992 99.8142 29.0846 96.9857 29.0846C94.2219 29.0846 92.1706 28.557 90.8319 27.5018C89.4932 26.4465 88.7915 25.1064 88.7267 23.4813H93.7792Z" fill="white"/>
<path d="M114.903 28.5781C112.506 28.5781 110.822 28.0716 109.85 27.0586C108.879 26.0455 108.393 24.4732 108.393 22.3416V16.8332H105.543V14.3006L108.846 12.8761L111.146 8.9189H113.964V12.7494H118.368V16.8332H113.964V24.2727H117.85V28.5781H114.903Z" fill="white"/>
<path d="M132.609 12.7494H138.18V28.5781H132.609V25.6973C132.069 26.7736 131.324 27.6073 130.374 28.1982C129.424 28.7892 128.258 29.0846 126.876 29.0846C124.804 29.0846 123.26 28.5042 122.245 27.3435C121.23 26.1616 120.723 24.5049 120.723 22.3733V12.7494H126.293V21.4236C126.293 23.5974 127.244 24.6843 129.144 24.6843C130.245 24.6843 131.098 24.3149 131.702 23.5763C132.307 22.8165 132.609 21.6874 132.609 20.1889V12.7494Z" fill="white"/>
<path d="M153.469 6.41797H159.04V28.5781H153.469V26.4254C152.282 28.1982 150.393 29.0846 147.802 29.0846C145.275 29.0846 143.397 28.2932 142.166 26.7103C140.957 25.1275 140.352 23.1014 140.352 20.6321C140.352 18.2262 140.968 16.2317 142.198 14.6489C143.429 13.0449 145.297 12.2429 147.802 12.2429C150.393 12.2429 152.282 13.1293 153.469 14.9021V6.41797ZM149.648 24.8425C151.03 24.8425 152.012 24.5154 152.595 23.8612C153.178 23.1858 153.469 22.12 153.469 20.6638C153.469 19.2075 153.178 18.1523 152.595 17.498C152.012 16.8227 151.03 16.485 149.648 16.485C148.287 16.485 147.326 16.8121 146.765 17.4664C146.225 18.0995 145.955 19.1653 145.955 20.6638C145.955 22.1622 146.225 23.2386 146.765 23.8928C147.326 24.526 148.287 24.8425 149.648 24.8425Z" fill="white"/>
<path d="M167.857 28.5781H162.286V12.7494H167.857V28.5781ZM167.954 10.8183H162.189V7.52598H167.954V10.8183Z" fill="white"/>
<path d="M179.538 29.0846C177.357 29.0846 175.576 28.6942 174.194 27.9133C172.812 27.1324 171.808 26.1088 171.182 24.8425C170.577 23.5763 170.275 22.1833 170.275 20.6638C170.275 19.1442 170.577 17.7513 171.182 16.485C171.808 15.2187 172.812 14.1951 174.194 13.4142C175.576 12.6334 177.357 12.2429 179.538 12.2429C181.719 12.2429 183.5 12.6334 184.882 13.4142C186.264 14.1951 187.268 15.2187 187.894 16.485C188.52 17.7513 188.833 19.1442 188.833 20.6638C188.833 22.1833 188.52 23.5763 187.894 24.8425C187.268 26.1088 186.264 27.1324 184.882 27.9133C183.5 28.6942 181.719 29.0846 179.538 29.0846ZM175.846 20.6638C175.846 22.2255 176.126 23.3124 176.688 23.9245C177.249 24.5365 178.199 24.8425 179.538 24.8425C180.877 24.8425 181.827 24.5365 182.388 23.9245C182.949 23.3124 183.23 22.2255 183.23 20.6638C183.23 19.102 182.949 18.0151 182.388 17.4031C181.827 16.791 180.877 16.485 179.538 16.485C178.199 16.485 177.249 16.791 176.688 17.4031C176.126 18.0151 175.846 19.102 175.846 20.6638Z" fill="white"/>
</svg>
